# xmcd
#
# Track frame offsets:
#	150
#	22575
#	39600
#	55840
#	71175
#	81975
#	106800
#	125700
#	143925
#	160350
#	173992
#	188617
#	212317
#	224102
#	250267
#	265567
#	284467
#
# Disc length: 3973 seconds
#
# Revision: 2
# Processed by: cddbd v1.5.2PL0 Copyright (c) Steve Scherf et al.
# Submitted via: EasyCDDAExtractor 16.0.9.1
#
DISCID=fb0f8311
DTITLE=CCM 연가2
DYEAR=2001
DGENRE=CCM
TTITLE0=소리엘 - 새벽이슬 같은
TTITLE1=소향 - 예수 사랑하심은
TTITLE2=팜스 - 낮은자의 하나님
TTITLE3=꿈이 있는 자유 - 그대를 향한
TTITLE4=아름다운 워쉽 - 오 주님나라 임하리
TTITLE5=김은정 - 창조의 생기
TTITLE6=옹기장이 - 이 믿음 더욱 구뎃라
TTITLE7=창문 - 작은 질그릇의 소망
TTITLE8=최덕신,옹기장이 - 그이름
TTITLE9=GM코러스 - 나 주님의 기쁨 되기 원하네
TTITLE10=이길승 - 교회로 와
TTITLE11=보리떡 - 우리 때문에
TTITLE12=시와그림 - 사랑하는 이에게
TTITLE13=박종호,찬양하는 사람들 - 내 맘에 한 노래있어
TTITLE14=MR-그대를 향한
TTITLE15=MR-이믿음 더욱 굳세라
TTITLE16=MR-나 주님의 기쁨 되기 원하네
EXTD=
EXTT0=
EXTT1=
EXTT2=
EXTT3=
EXTT4=
EXTT5=
EXTT6=
EXTT7=
EXTT8=
EXTT9=
EXTT10=
EXTT11=
EXTT12=
EXTT13=
EXTT14=
EXTT15=
EXTT16=
PLAYORDER=
